<svg width="246" height="57" viewBox="0 0 246 57" fill="none" xmlns="http://www.w3.org/2000/svg">
<path d="M89.8771 35.0707C89.8771 34.5045 89.7889 33.9962 89.6123 33.5461C89.4505 33.0814 89.1416 32.6603 88.6858 32.2827C88.2298 31.8906 87.5899 31.5059 86.7663 31.1283C85.9426 30.7508 84.8763 30.3587 83.5672 29.9521C82.1112 29.4875 80.7285 28.9647 79.4195 28.3838C78.1252 27.803 76.9779 27.1278 75.9779 26.3582C74.9923 25.574 74.2128 24.6664 73.6392 23.6354C73.0803 22.6045 72.8008 21.4065 72.8008 20.0414C72.8008 18.72 73.095 17.522 73.6833 16.4475C74.2717 15.3584 75.0953 14.4291 76.1543 13.6594C77.2133 12.8753 78.4635 12.2727 79.9049 11.8516C81.361 11.4305 82.9569 11.2199 84.6924 11.2199C87.0604 11.2199 89.1269 11.641 90.892 12.4832C92.6569 13.3255 94.0248 14.4799 94.9955 15.9465C95.9811 17.4131 96.4737 19.0903 96.4737 20.9781H89.8992C89.8992 20.0488 89.7006 19.2355 89.3034 18.5385C88.9211 17.827 88.3327 17.2679 87.5385 16.8613C86.7589 16.4548 85.7734 16.2514 84.5821 16.2514C83.4349 16.2514 82.4788 16.4258 81.7141 16.7742C80.9492 17.1082 80.3756 17.5657 79.9932 18.1464C79.6108 18.7129 79.4195 19.3517 79.4195 20.0633C79.4195 20.6005 79.5519 21.087 79.8167 21.5226C80.0961 21.9583 80.5079 22.3648 81.0521 22.7424C81.5963 23.1199 82.2655 23.4757 83.0598 23.8096C83.854 24.1437 84.7734 24.4703 85.8176 24.7899C87.5678 25.3126 89.1048 25.9007 90.4286 26.5542C91.767 27.2076 92.885 27.9409 93.7821 28.7541C94.6793 29.5673 95.3559 30.4894 95.8119 31.5204C96.2678 32.5513 96.4958 33.7203 96.4958 35.0272C96.4958 36.4068 96.2237 37.6411 95.6794 38.7301C95.1352 39.8192 94.3484 40.7412 93.3189 41.4964C92.2892 42.2515 91.061 42.825 89.6344 43.2171C88.2077 43.6092 86.6118 43.8052 84.8469 43.8052C83.2583 43.8052 81.692 43.6019 80.1476 43.1953C78.6033 42.7742 77.1986 42.1426 75.9337 41.3003C74.6835 40.4581 73.6833 39.3835 72.9332 38.0766C72.1831 36.7697 71.808 35.2233 71.808 33.4372H78.4488C78.4488 34.4245 78.6033 35.2596 78.912 35.9421C79.2209 36.6245 79.6548 37.1764 80.2138 37.5974C80.7874 38.0185 81.4639 38.3235 82.2435 38.5123C83.0378 38.701 83.9056 38.7954 84.8469 38.7954C85.9941 38.7954 86.9354 38.6357 87.6709 38.3163C88.4209 37.9968 88.9726 37.5538 89.3255 36.9875C89.6932 36.4213 89.8771 35.7824 89.8771 35.0707ZM224.215 40.7122L230.547 19.8019H237.364L227.767 46.9199C227.561 47.5153 227.281 48.1542 226.929 48.8367C226.59 49.5192 226.127 50.1655 225.538 50.7754C224.965 51.3997 224.237 51.9079 223.354 52.3C222.487 52.692 221.42 52.8881 220.155 52.8881C219.553 52.8881 219.059 52.8518 218.676 52.7793C218.295 52.7067 217.838 52.6049 217.31 52.4743V47.8784C217.472 47.8784 217.64 47.8784 217.817 47.8784C217.994 47.8929 218.162 47.9001 218.324 47.9001C219.162 47.9001 219.846 47.8058 220.376 47.6169C220.906 47.4282 221.332 47.1378 221.656 46.7457C221.979 46.3681 222.236 45.8745 222.428 45.2646L224.215 40.7122ZM221.567 19.8019L226.752 36.8786L227.657 43.522L223.332 43.9795L214.751 19.8019H221.567Z" fill="#00A87F"/>
<path d="M114.719 37.7282V19.8019H121.073V43.3696H115.094L114.719 37.7282ZM115.425 32.8926L117.301 32.8491C117.301 34.4174 117.117 35.8767 116.749 37.2272C116.381 38.5631 115.83 39.7248 115.094 40.7123C114.359 41.6851 113.432 42.4475 112.314 42.9993C111.197 43.5366 109.88 43.8053 108.365 43.8053C107.203 43.8053 106.13 43.6455 105.144 43.326C104.173 42.992 103.335 42.4765 102.629 41.7795C101.938 41.068 101.394 40.1605 100.997 39.0568C100.614 37.9387 100.423 36.5955 100.423 35.0273V19.8019H106.777V35.0707C106.777 35.7678 106.858 36.3559 107.02 36.8351C107.196 37.3143 107.439 37.7064 107.748 38.0113C108.057 38.3163 108.417 38.5341 108.829 38.6647C109.255 38.7954 109.726 38.8608 110.241 38.8608C111.55 38.8608 112.579 38.5994 113.329 38.0766C114.094 37.5538 114.631 36.8423 114.94 35.9421C115.263 35.0273 115.425 34.0108 115.425 32.8926ZM132.281 24.9423V43.3696H125.927V19.8019H131.906L132.281 24.9423ZM139.473 19.6494L139.363 25.4651C139.054 25.4215 138.679 25.3852 138.238 25.3562C137.811 25.3126 137.421 25.2909 137.068 25.2909C136.171 25.2909 135.392 25.407 134.73 25.6394C134.083 25.8572 133.538 26.184 133.097 26.6195C132.671 27.0552 132.347 27.5852 132.126 28.2096C131.92 28.834 131.803 29.5456 131.773 30.3442L130.494 29.9521C130.494 28.4274 130.649 27.0261 130.957 25.7483C131.266 24.4559 131.714 23.3305 132.303 22.3721C132.907 21.4137 133.642 20.6732 134.509 20.1504C135.377 19.6276 136.369 19.3663 137.488 19.3663C137.84 19.3663 138.201 19.3953 138.568 19.4534C138.936 19.497 139.239 19.5623 139.473 19.6494ZM150.99 38.7954L156.285 19.8019H162.926L154.873 43.3696H150.857L150.99 38.7954ZM147.349 19.8019L152.667 38.8173L152.777 43.3696H148.74L140.687 19.8019H147.349ZM176.45 43.8053C174.596 43.8053 172.934 43.5148 171.463 42.9339C169.992 42.3386 168.742 41.5182 167.713 40.4726C166.698 39.4272 165.918 38.2145 165.375 36.8351C164.83 35.4411 164.558 33.9599 164.558 32.3916V31.5204C164.558 29.7343 164.815 28.1006 165.331 26.6195C165.845 25.1384 166.581 23.8533 167.536 22.7642C168.507 21.6751 169.684 20.8402 171.067 20.2593C172.449 19.6639 174.009 19.3663 175.743 19.3663C177.435 19.3663 178.935 19.6422 180.244 20.194C181.553 20.7458 182.649 21.5299 183.532 22.5464C184.428 23.5628 185.105 24.7826 185.562 26.2056C186.017 27.6143 186.246 29.1825 186.246 30.9105V33.5243H167.271V29.3422H180.002V28.8631C180.002 27.9917 179.84 27.2149 179.516 26.5324C179.207 25.8354 178.737 25.2836 178.104 24.877C177.471 24.4704 176.663 24.2671 175.678 24.2671C174.839 24.2671 174.119 24.4487 173.515 24.8116C172.913 25.1747 172.42 25.683 172.037 26.3364C171.669 26.9898 171.39 27.7594 171.198 28.6452C171.023 29.5165 170.934 30.4749 170.934 31.5204V32.3916C170.934 33.3355 171.067 34.2068 171.331 35.0054C171.61 35.8041 172 36.4939 172.5 37.0747C173.016 37.6556 173.633 38.1058 174.354 38.4252C175.089 38.7446 175.92 38.9044 176.846 38.9044C177.994 38.9044 179.06 38.6865 180.046 38.2509C181.046 37.8008 181.907 37.1255 182.627 36.2252L185.716 39.536C185.215 40.2476 184.531 40.93 183.664 41.5835C182.811 42.2369 181.781 42.7742 180.575 43.1954C179.369 43.6019 177.994 43.8053 176.45 43.8053ZM196.57 19.8019V43.3696H190.194V19.8019H196.57ZM189.798 13.6594C189.798 12.7447 190.122 11.9896 190.768 11.3942C191.416 10.7988 192.283 10.5012 193.371 10.5012C194.445 10.5012 195.305 10.7988 195.953 11.3942C196.614 11.9896 196.946 12.7447 196.946 13.6594C196.946 14.5743 196.614 15.3294 195.953 15.9248C195.305 16.5201 194.445 16.8179 193.371 16.8179C192.283 16.8179 191.416 16.5201 190.768 15.9248C190.122 15.3294 189.798 14.5743 189.798 13.6594ZM213.514 19.8019V24.2453H199.615V19.8019H213.514ZM203.057 13.9862H209.411V36.2687C209.411 36.9513 209.499 37.474 209.676 37.8371C209.867 38.2 210.147 38.4542 210.515 38.5994C210.882 38.7301 211.345 38.7954 211.904 38.7954C212.301 38.7954 212.654 38.781 212.963 38.7518C213.287 38.7083 213.558 38.6647 213.779 38.6212L213.802 43.2388C213.257 43.4132 212.668 43.5511 212.036 43.6527C211.404 43.7543 210.705 43.8053 209.941 43.8053C208.543 43.8053 207.323 43.5801 206.279 43.1299C205.248 42.6653 204.454 41.9247 203.895 40.9083C203.337 39.8918 203.057 38.5558 203.057 36.9004V13.9862Z" fill="#00C78D"/>
<mask id="mask0_3_9" style="mask-type:luminance" maskUnits="userSpaceOnUse" x="0" y="0" width="58" height="57">
<path d="M57.7347 0H0V57H57.7347V0Z" fill="white"/>
</mask>
<g mask="url(#mask0_3_9)">
<path fill-rule="evenodd" clip-rule="evenodd" d="M28.8673 57C44.8103 57 57.7347 44.2401 57.7347 28.5C57.7347 26.3401 57.4913 24.2363 57.0302 22.2139L55.5578 24.9085C55.1265 25.7023 54.6852 26.4961 54.2342 27.2899C53.8027 28.0838 53.3811 28.8388 52.9692 29.5552C52.5574 30.2523 52.1848 30.8911 51.8514 31.4719C51.5376 32.0528 51.2827 32.5272 51.0865 32.8951L50.8807 33.8534L49.2334 44.7443C49.1745 45.0734 49.1255 45.3445 49.0863 45.5574C49.047 45.7704 48.9883 45.9446 48.9098 46.0802C48.851 46.2157 48.7627 46.3318 48.645 46.4287C48.547 46.5255 48.3999 46.6223 48.2038 46.7191L39.8495 51.0463C39.5357 51.2012 39.2024 51.3271 38.8493 51.4239C38.5159 51.5207 38.1924 51.5691 37.8786 51.5691C37.5452 51.5691 37.2608 51.4917 37.0255 51.3368C36.7902 51.2012 36.6726 50.9689 36.6726 50.6398V50.5236C36.751 49.42 36.8882 48.1422 37.0844 46.6901C37.3001 45.2186 37.5257 43.7858 37.761 42.3918L39.4083 31.6172C39.0945 30.9589 38.6826 30.0876 38.1728 29.0033C37.6629 27.9191 37.1137 26.7477 36.5255 25.4893C35.9371 24.2308 35.3193 22.9336 34.6722 21.5977C34.0446 20.2618 33.4466 19.0032 32.8778 17.8222C32.3287 16.6218 31.8286 15.5666 31.3776 14.6566C30.9462 13.7467 30.6226 13.0786 30.4069 12.6526C30.3088 12.3623 30.2598 12.0622 30.2598 11.7524C30.2598 11.5781 30.2793 11.4136 30.3186 11.2587C30.3774 11.0844 30.4755 10.9586 30.6127 10.8811C30.7304 10.8037 30.9265 10.7069 31.2011 10.5907C31.4953 10.4552 31.8286 10.3099 32.2013 10.1551C32.5935 10.0002 33.0053 9.8356 33.4367 9.66135C33.8878 9.46772 34.3388 9.2838 34.7899 9.10954L38.2022 7.77361C38.4571 7.65744 38.6924 7.59935 38.9082 7.59935C39.0651 7.59935 39.2317 7.64776 39.4083 7.74457C39.6044 7.82201 39.8201 7.9769 40.0555 8.20924L46.8506 21.2201L47.0272 20.7844L49.9394 15.4698C50.312 14.8114 50.6747 14.1629 51.0278 13.524C51.4003 12.885 51.724 12.3139 51.9985 11.8105C52.0394 11.7404 52.0795 11.6722 52.1185 11.6059C46.8622 4.56656 38.405 0 28.8673 0C20.7364 0 13.3907 3.31885 8.14399 8.65928C8.75883 8.39703 9.40419 8.1599 10.0801 7.94786C12.1784 7.27021 14.5121 6.93139 17.0812 6.93139C17.395 6.93139 17.8656 6.97011 18.4932 7.04755C19.1207 7.10564 19.8071 7.21212 20.5523 7.36701C21.3172 7.52191 22.0918 7.73489 22.8762 8.00595C23.6607 8.27701 24.3765 8.62551 25.0236 9.05146C25.2393 9.20635 25.406 9.36125 25.5238 9.51614C25.6609 9.67103 25.7492 9.91304 25.7885 10.2422C25.8865 11.8105 25.9649 13.3593 26.0238 14.8889C26.0827 16.3991 26.1611 18.0061 26.2591 19.7099C26.2591 20.0391 26.1905 20.2618 26.0532 20.3779C25.916 20.4746 25.7394 20.5231 25.5238 20.5231C25.308 20.5231 25.1413 20.465 25.0236 20.3489C24.4549 19.7874 23.8665 19.2355 23.2587 18.6934C22.6507 18.1513 22.0134 17.6769 21.3465 17.2704C20.6798 16.8445 19.964 16.5056 19.1992 16.2539C18.4539 16.0023 17.6401 15.8764 16.7576 15.8764C16.2281 15.8764 15.6986 15.9248 15.1692 16.0216C14.6396 16.099 14.1592 16.2539 13.7277 16.4863C13.2963 16.7186 12.9432 17.038 12.6687 17.4446C12.4138 17.8512 12.2863 18.3643 12.2863 18.9838C12.2863 19.6422 12.3648 20.2133 12.5216 20.6973C12.6981 21.1814 13.1197 21.6363 13.7865 22.0623L20.8465 26.7962C22.1408 27.7062 23.19 28.6162 23.994 29.5261C24.7981 30.4168 25.4256 31.3074 25.8767 32.1981C26.3278 33.0886 26.6318 33.9696 26.7886 34.8409C26.9651 35.6928 27.0533 36.535 27.0533 37.3675C27.0533 38.7228 26.8278 40.0006 26.3767 41.2011C25.9258 42.4016 25.308 43.5148 24.5236 44.5409C23.7391 45.5477 22.8174 46.4577 21.7584 47.2708C20.719 48.0648 19.6012 48.7521 18.4049 49.3329C17.2087 49.8943 15.9634 50.3203 14.669 50.6108C13.5099 50.8924 12.367 51.046 11.2404 51.0716C16.1165 54.7886 22.2304 57 28.8673 57ZM2.17657 39.3763C2.918 39.9252 3.70906 40.3882 4.54977 40.7654C5.84409 41.3463 7.25608 41.6368 8.78574 41.6368C9.19758 41.6368 9.66824 41.598 10.1977 41.5205C10.7272 41.4238 11.2273 41.2785 11.698 41.0849C12.1686 40.872 12.5608 40.6008 12.8746 40.2717C13.2081 39.9426 13.3747 39.5263 13.3747 39.0229C13.3747 38.4615 13.2374 37.958 12.9628 37.5127C12.6883 37.0675 12.3255 36.6899 11.8745 36.3801C11.698 36.2639 11.4332 36.0703 11.0802 35.7992C10.7272 35.5282 10.3252 35.2184 9.87415 34.8699C9.42311 34.5214 8.95244 34.1535 8.46216 33.7663C7.97189 33.3597 7.50123 32.9822 7.05017 32.6336C6.61873 32.2658 6.22651 31.9366 5.87351 31.6463C5.52052 31.3558 5.25576 31.1332 5.07927 30.9783C3.92222 30.1264 3.00051 29.2648 2.31412 28.3936C1.64735 27.5222 1.13747 26.6123 0.784468 25.6635C0.599446 25.1662 0.449443 24.661 0.334462 24.1478C0.114231 25.5669 0 27.0202 0 28.5C0 32.3517 0.773907 36.0249 2.17657 39.3763Z" fill="url(#paint0_linear_3_9)"/>
</g>
<defs>
<linearGradient id="paint0_linear_3_9" x1="-23.8823" y1="-15.4891" x2="31.0602" y2="57.7001" gradientUnits="userSpaceOnUse">
<stop stop-color="#00C78D"/>
<stop offset="1" stop-color="#00A87F"/>
</linearGradient>
</defs>
</svg>
