<svg width="46" height="45" viewBox="0 0 46 45" fill="none" xmlns="http://www.w3.org/2000/svg">
<path fill-rule="evenodd" clip-rule="evenodd" d="M22.79 45C35.3765 45 45.58 34.9264 45.58 22.5C45.58 20.7948 45.3879 19.1339 45.0238 17.5373L43.8615 19.6646C43.5209 20.2913 43.1725 20.918 42.8165 21.5446C42.4758 22.1714 42.143 22.7675 41.8178 23.3331C41.4927 23.8834 41.1985 24.3877 40.9353 24.8463C40.6876 25.3049 40.4864 25.6793 40.3315 25.9698L40.169 26.7264L38.8685 35.3244C38.822 35.5842 38.7832 35.7983 38.7523 35.9663C38.7213 36.1345 38.6749 36.2721 38.613 36.3791C38.5665 36.4861 38.4969 36.5778 38.4039 36.6543C38.3266 36.7307 38.2104 36.8071 38.0556 36.8835L31.4601 40.2998C31.2124 40.422 30.9492 40.5214 30.6705 40.5978C30.4073 40.6742 30.1519 40.7125 29.9042 40.7125C29.641 40.7125 29.4165 40.6513 29.2307 40.5291C29.0449 40.422 28.952 40.2386 28.952 39.9788V39.887C29.014 39.0158 29.1223 38.007 29.2771 36.8606C29.4475 35.6989 29.6255 34.5677 29.8113 33.4672L31.1118 24.9609C30.8641 24.4413 30.5389 23.7533 30.1364 22.8974C29.7338 22.0414 29.3003 21.1166 28.8359 20.1231C28.3714 19.1296 27.8837 18.1055 27.3728 17.0508C26.8773 15.9961 26.4052 15.0025 25.9561 14.0701C25.5226 13.1225 25.1279 12.2894 24.7717 11.571C24.4312 10.8526 24.1757 10.3253 24.0054 9.98892C23.928 9.75968 23.8893 9.52276 23.8893 9.2782C23.8893 9.14062 23.9047 9.0107 23.9358 8.88842C23.9821 8.75085 24.0596 8.65149 24.1679 8.59035C24.2609 8.52921 24.4156 8.45278 24.6324 8.36108C24.8647 8.25408 25.1279 8.13943 25.4221 8.01715C25.7317 7.89487 26.0568 7.76495 26.3974 7.62738C26.7535 7.47452 27.1096 7.32932 27.4657 7.19174L30.1596 6.13706C30.3609 6.04535 30.5466 5.99949 30.717 5.99949C30.8408 5.99949 30.9724 6.03771 31.1118 6.11413C31.2666 6.17527 31.4369 6.29755 31.6227 6.48098L36.9873 16.7527L37.1267 16.4088L39.4258 12.213C39.72 11.6932 40.0064 11.1812 40.2851 10.6768C40.5792 10.1723 40.8347 9.72147 41.0514 9.32405C41.0837 9.26873 41.1154 9.21488 41.1462 9.16253C36.9965 3.60518 30.3197 0 22.79 0C16.3709 0 10.5716 2.62014 6.42947 6.83627C6.91487 6.62923 7.42436 6.44202 7.95794 6.27462C9.61456 5.73964 11.4569 5.47215 13.4851 5.47215C13.7329 5.47215 14.1044 5.50272 14.5999 5.56386C15.0953 5.60972 15.6372 5.69378 16.2255 5.81606C16.8293 5.93835 17.4409 6.10649 18.0602 6.32048C18.6795 6.53448 19.2446 6.80962 19.7555 7.14589C19.9258 7.26818 20.0574 7.39046 20.1503 7.51274C20.2586 7.63502 20.3283 7.82609 20.3593 8.08593C20.4367 9.32405 20.4986 10.5468 20.5451 11.7544C20.5916 12.9467 20.6535 14.2153 20.7309 15.5604C20.7309 15.8203 20.6767 15.9961 20.5683 16.0878C20.46 16.1642 20.3206 16.2024 20.1503 16.2024C19.98 16.2024 19.8484 16.1566 19.7555 16.0649C19.3065 15.6217 18.842 15.1859 18.3621 14.7579C17.8821 14.33 17.379 13.9555 16.8525 13.6345C16.3262 13.2983 15.7611 13.0307 15.1572 12.832C14.5689 12.6334 13.9264 12.534 13.2297 12.534C12.8117 12.534 12.3936 12.5722 11.9757 12.6486C11.5576 12.7098 11.1783 12.832 10.8376 13.0155C10.4971 13.1989 10.2183 13.4511 10.0016 13.7721C9.80035 14.093 9.69972 14.4981 9.69972 14.9873C9.69972 15.507 9.76165 15.9579 9.8855 16.34C10.0248 16.7222 10.3577 17.0813 10.8841 17.4176L16.4578 21.1549C17.4795 21.8733 18.3079 22.5918 18.9427 23.3101C19.5774 24.0133 20.0728 24.7163 20.429 25.4195C20.7851 26.1226 21.0251 26.8181 21.1489 27.506C21.2882 28.1785 21.3579 28.8434 21.3579 29.5006C21.3579 30.5707 21.1798 31.5794 20.8237 32.5272C20.4677 33.4749 19.98 34.3538 19.3607 35.1639C18.7414 35.9587 18.0137 36.6772 17.1777 37.3191C16.3571 37.9459 15.4746 38.4885 14.5302 38.947C13.5858 39.3903 12.6027 39.7266 11.5808 39.9559C10.6657 40.1782 9.76346 40.2995 8.87397 40.3197C12.7236 43.2542 17.5503 45 22.79 45ZM1.71835 31.0866C2.30368 31.5199 2.92821 31.8854 3.59192 32.1832C4.61376 32.6418 5.72849 32.8711 6.93611 32.8711C7.26124 32.8711 7.63282 32.8405 8.05084 32.7794C8.46887 32.703 8.86367 32.5883 9.23525 32.4354C9.60682 32.2673 9.91643 32.0533 10.1641 31.7935C10.4274 31.5337 10.559 31.205 10.559 30.8076C10.559 30.3643 10.4506 29.9669 10.2338 29.6153C10.0171 29.2638 9.73068 28.9657 9.37458 28.7212C9.23525 28.6294 9.02623 28.4766 8.74755 28.2625C8.46887 28.0486 8.15148 27.804 7.79538 27.5288C7.43929 27.2538 7.06772 26.9633 6.68065 26.6576C6.2936 26.3366 5.92202 26.0386 5.56592 25.7634C5.22531 25.473 4.91567 25.2131 4.63698 24.9839C4.3583 24.7546 4.14929 24.5788 4.00995 24.4565C3.09649 23.784 2.36882 23.1038 1.82694 22.416C1.30054 21.7281 0.897999 21.0097 0.619317 20.2607C0.473246 19.8681 0.354824 19.4692 0.264049 19.0641C0.0901822 20.1844 0 21.3318 0 22.5C0 25.5408 0.610979 28.4407 1.71835 31.0866Z" fill="url(#paint0_linear_48_48)"/>
<defs>
<linearGradient id="paint0_linear_48_48" x1="-18.8545" y1="-12.2283" x2="24.5212" y2="45.5527" gradientUnits="userSpaceOnUse">
<stop stop-color="#00C78D"/>
<stop offset="1" stop-color="#00A87F"/>
</linearGradient>
</defs>
</svg>
