<svg width="14" height="16" viewBox="0 0 14 16" fill="none" xmlns="http://www.w3.org/2000/svg">
<path d="M1 4.63978C5.01588 3.18225 9.41628 3.18225 13.4321 4.63978" stroke="#828288" stroke-linecap="round" stroke-linejoin="round"/>
<path d="M4.46008 3.7627C4.46008 3.02998 4.75115 2.32732 5.26926 1.80921C5.78736 1.29111 6.49006 1 7.2228 1C7.95547 1 8.65823 1.29111 9.1763 1.80921C9.69438 2.32732 9.9855 3.02998 9.9855 3.7627" stroke="#828288" stroke-linecap="round" stroke-linejoin="round"/>
<path d="M7.21606 8.79089V12.2443" stroke="#828288" stroke-linecap="round" stroke-linejoin="round"/>
<path d="M12.0508 6.71191L11.588 12.2373C11.5138 12.9839 11.1684 13.6774 10.6174 14.1866C10.0662 14.6957 9.34755 14.9851 8.59741 15H5.83472C5.08457 14.9851 4.3659 14.6957 3.81478 14.1866C3.26365 13.6774 2.91831 12.9839 2.84411 12.2373L2.38135 6.71191" stroke="#828288" stroke-linecap="round" stroke-linejoin="round"/>
</svg>
