<svg width="42" height="43" viewBox="0 0 42 43" fill="none" xmlns="http://www.w3.org/2000/svg">
<rect x="0.961304" width="40.34" height="42.0833" rx="6" fill="#00C78D"/>
<path d="M10.5967 9.95837H28.1601C29.0383 9.95837 29.7568 10.6395 29.7568 11.4719V12.9854C29.7568 13.8178 29.0383 14.4989 28.1601 14.4989H10.5967C9.7185 14.4989 9 13.8178 9 12.9854V11.4719C9 10.6395 9.7185 9.95837 10.5967 9.95837Z" fill="white"/>
<path d="M10.5725 17.0935H20.4005C21.2654 17.0935 21.973 17.7746 21.973 18.607V20.1205C21.973 20.953 21.2654 21.634 20.4005 21.634H10.5725C9.70762 21.634 9 20.953 9 20.1205V18.607C9 17.7746 9.70762 17.0935 10.5725 17.0935Z" fill="white"/>
<path d="M27.3906 21.6339C30.4758 21.6339 33 24.115 33 27.1474C33 30.1799 30.4758 32.6609 27.3906 32.6609C24.3055 32.6609 21.7813 30.1799 21.7813 27.1474C21.7813 24.115 24.3055 21.6339 27.3906 21.6339ZM30.5559 25.9266C30.6761 25.8084 30.6761 25.5328 30.5559 25.4146L29.995 24.9026C29.8347 24.7451 29.5943 24.7451 29.4341 24.9026L26.429 28.2107L25.0668 26.8718C24.9065 26.7142 24.6661 26.7142 24.5058 26.8718L23.9449 27.3837C23.7846 27.5019 23.7846 27.7382 23.9449 27.8957L25.8681 29.7467C26.0284 29.9042 26.2287 29.9829 26.429 29.9829C26.6694 29.9829 26.8297 29.9042 26.99 29.7467L30.5559 25.9266ZM10.6027 24.3907H19.8982C19.5776 25.2965 19.4174 26.0841 19.4174 26.7536C19.3773 27.5806 19.4574 28.3683 19.6578 29.1165H10.6027C9.7212 29.1165 9 28.4077 9 27.5412V25.966C9 25.0995 9.7212 24.3907 10.6027 24.3907Z" fill="white"/>
</svg>
