<svg width="41" height="43" viewBox="0 0 41 43" fill="none" xmlns="http://www.w3.org/2000/svg">
<rect width="40.34" height="42.0833" rx="6" fill="#C76A00"/>
<path d="M26.3906 8C29.4758 8 32 10.4811 32 13.5135C32 16.5459 29.4758 19.027 26.3906 19.027C23.3055 19.027 20.7813 16.5459 20.7813 13.5135C20.7813 10.4811 23.3055 8 26.3906 8ZM29.5559 12.2927C29.6761 12.1745 29.6761 11.8988 29.5559 11.7807L28.995 11.2687C28.8347 11.1112 28.5943 11.1112 28.4341 11.2687L25.429 14.5768L24.0668 13.2378C23.9065 13.0803 23.6661 13.0803 23.5058 13.2378L22.9449 13.7498C22.7846 13.868 22.7846 14.1042 22.9449 14.2618L24.8681 16.1127C25.0284 16.2703 25.2287 16.349 25.429 16.349C25.6694 16.349 25.8297 16.2703 25.99 16.1127L29.5559 12.2927ZM9.60267 10.7568H18.8982C18.5776 11.6625 18.4174 12.4502 18.4174 13.1197C18.3773 13.9467 18.4574 14.7344 18.6578 15.4826H9.60267C8.7212 15.4826 8 14.7737 8 13.9073V12.332C8 11.4656 8.7212 10.7568 9.60267 10.7568Z" fill="white"/>
<path d="M26.3906 23C29.4758 23 32 25.4811 32 28.5135C32 31.5459 29.4758 34.027 26.3906 34.027C23.3055 34.027 20.7813 31.5459 20.7813 28.5135C20.7813 25.4811 23.3055 23 26.3906 23ZM29.5559 27.2927C29.6761 27.1745 29.6761 26.8988 29.5559 26.7807L28.995 26.2687C28.8347 26.1112 28.5943 26.1112 28.4341 26.2687L25.429 29.5768L24.0668 28.2378C23.9065 28.0803 23.6661 28.0803 23.5058 28.2378L22.9449 28.7498C22.7846 28.868 22.7846 29.1042 22.9449 29.2618L24.8681 31.1127C25.0284 31.2703 25.2287 31.349 25.429 31.349C25.6694 31.349 25.8297 31.2703 25.99 31.1127L29.5559 27.2927ZM9.60267 25.7568H18.8982C18.5776 26.6625 18.4174 27.4502 18.4174 28.1197C18.3773 28.9467 18.4574 29.7344 18.6578 30.4826H9.60267C8.7212 30.4826 8 29.7737 8 28.9073V27.332C8 26.4656 8.7212 25.7568 9.60267 25.7568Z" fill="white"/>
</svg>
